<svg xmlns="http://www.w3.org/2000/svg" width="64" height="64" id="forest">
  <path fill-rule="evenodd" d="M32 0A32 32 0 0 0 0 32a32 32 0 0 0 32 32 32 32 0 0 0 32-32A32 32 0 0 0 32 0zm-8.549 11.74c.25 0 .51.14.67.42l5.68 9.76c.24.48-.08 1.121-.64 1.121h-1.505l5.184 8.799c.24.56-.079 1.201-.639 1.201h-1.539l5.139 8.799c.24.56-.08 1.2-.64 1.2H11.72c-.56 0-.88-.64-.64-1.2l5.173-8.799H14.76c-.56 0-.879-.641-.639-1.201l5.184-8.799H17.72c-.56 0-.88-.641-.64-1.201l5.759-9.68c.12-.28.361-.42.611-.42zm17.51 4.24a.64.64 0 0 1 .559.3L46.64 25a.709.709 0 0 1-.64 1.041h-1.348l4.627 7.92c.32.48.002 1.039-.558 1.039h-1.377L52 42.96a.707.707 0 0 1-.64 1.04H36.272c.157-.165.291-.344.39-.531a2.69 2.69 0 0 0 .081-2.324l-.045-.104-2.826-4.84.703-1.201H33.2c-.48 0-.878-.56-.558-1.04l4.627-7.919H35.84c-.48 0-.8-.56-.56-1.041l5.12-8.72c.12-.201.34-.3.56-.3zM21.48 44h4v8h-4v-8zM39 44.996h4V52h-4v-7.004z"></path>
</svg>
